<?xml version="1.0" standalone="no"?>
<!DOCTYPE svg PUBLIC "-//W3C//DTD SVG 20010904//EN"
 "http://www.w3.org/TR/2001/REC-SVG-20010904/DTD/svg10.dtd">
<svg version="1.0" xmlns="http://www.w3.org/2000/svg"
 width="300.000000pt" height="267.000000pt" viewBox="0 0 300.000000 267.000000"
 preserveAspectRatio="xMidYMid meet">
<metadata>
Created by potrace 1.10, written by Peter Selinger 2001-2011
</metadata>
<g transform="translate(0.000000,267.000000) scale(0.100000,-0.100000)"
fill="#000000" stroke="none">
<path d="M1490 2453 c-12 -26 -30 -68 -41 -93 -12 -28 -26 -46 -37 -46 -9 0
-40 -4 -68 -8 -48 -7 -52 -6 -58 16 -11 41 -7 46 49 53 34 4 55 11 55 19 0 10
-12 11 -56 3 -30 -5 -57 -8 -58 -6 -2 2 -6 16 -10 30 -6 26 -4 27 55 38 63 11
77 16 66 27 -4 5 -157 -15 -157 -20 0 -7 42 -191 44 -193 1 -1 29 2 63 7 33 6
72 11 86 12 16 1 30 11 36 25 9 20 18 23 66 23 50 0 56 -2 65 -25 5 -14 16
-25 25 -25 8 0 15 1 15 3 0 20 -92 203 -103 205 -10 2 -23 -13 -37 -45z m79
-84 c1 -3 -19 -5 -44 -5 -25 1 -44 3 -42 6 1 3 11 27 22 54 l19 50 22 -50 c13
-27 23 -52 23 -55z"/>
<path d="M1048 2412 c-26 -9 -49 -20 -53 -23 -7 -8 72 -179 83 -179 24 0 99
33 119 52 36 34 32 91 -11 134 -39 39 -65 42 -138 16z m107 -18 c23 -9 48 -62
41 -90 -6 -23 -69 -64 -99 -64 -7 0 -27 31 -44 70 l-31 69 27 10 c31 11 83 14
106 5z"/>
<path d="M1993 2337 c-18 -29 -42 -66 -53 -84 l-21 -32 50 -25 c70 -36 124
-35 161 3 37 37 47 77 29 110 -14 24 -101 81 -124 80 -5 0 -25 -23 -42 -52z
m80 12 c39 -20 67 -52 67 -77 0 -29 -51 -82 -79 -82 -23 0 -101 29 -101 38 0
8 81 132 87 132 2 0 14 -5 26 -11z"/>
<path d="M920 2351 c0 -17 103 -172 112 -169 15 5 11 14 -39 98 -42 69 -73
100 -73 71z"/>
<path d="M1730 2350 c0 -5 19 -14 43 -20 23 -6 50 -13 60 -16 10 -3 17 0 17 9
0 8 -20 18 -51 25 -61 14 -69 15 -69 2z"/>
<path d="M774 2277 c-3 -10 12 -44 40 -87 25 -39 46 -73 46 -75 0 -3 -39 16
-86 41 -74 41 -87 45 -100 32 -12 -12 -8 -24 36 -87 27 -40 50 -75 50 -77 0
-3 -41 16 -91 42 -61 32 -94 43 -101 36 -15 -15 191 -112 215 -100 15 8 12 17
-33 83 -27 41 -50 77 -50 80 0 3 38 -16 85 -41 68 -37 88 -44 100 -34 11 9 5
26 -42 103 -66 109 -61 104 -69 84z"/>
<path d="M1478 2237 c-7 -7 -21 -16 -30 -20 -11 -4 -17 -16 -16 -34 1 -15 -2
-44 -6 -63 -8 -33 -7 -34 8 -15 15 19 15 18 16 -22 0 -44 16 -66 26 -38 4 9
-2 33 -12 53 -10 21 -20 40 -22 45 -2 4 1 7 7 7 6 0 17 -12 25 -27 8 -16 15
-23 16 -18 0 6 -9 25 -20 43 -24 39 -26 62 -5 62 8 0 15 -6 15 -14 0 -8 4 -18
10 -21 7 -4 7 2 1 19 -7 18 -6 28 5 36 20 17 46 -6 39 -34 -5 -19 -5 -19 5 -3
6 9 15 17 20 17 16 0 11 -33 -10 -65 -11 -16 -20 -34 -20 -40 1 -5 8 2 16 18
8 15 19 27 25 27 6 0 9 -3 7 -7 -2 -5 -12 -24 -22 -45 -10 -20 -16 -44 -12
-53 10 -28 26 -6 26 37 0 36 2 39 16 27 15 -12 16 -11 9 11 -4 14 -8 39 -9 57
-2 53 -74 94 -108 60z"/>
<path d="M1635 2192 c-26 -33 -26 -35 -4 -17 13 11 27 24 30 29 4 4 9 3 13 -2
3 -6 -7 -20 -24 -32 -16 -12 -30 -29 -30 -38 0 -13 4 -11 16 6 20 29 54 42 77
30 26 -13 -1 -37 -35 -31 -14 3 -28 0 -32 -5 -4 -6 2 -8 14 -5 14 4 20 0 20
-11 0 -9 7 -16 15 -16 8 0 15 -4 15 -9 0 -18 27 -18 38 0 7 11 9 19 5 18 -5
-1 -17 -1 -28 0 -19 2 -19 2 3 20 26 23 20 49 -14 57 -13 3 -24 12 -24 19 0
28 -28 21 -55 -13z"/>
<path d="M2193 2182 c-64 -29 -99 -50 -93 -56 6 -6 19 -5 36 2 23 11 30 9 65
-19 28 -22 38 -36 33 -48 -10 -25 -10 -44 1 -47 6 -2 29 42 53 98 32 78 39
103 30 110 -17 10 -8 13 -125 -40z m84 -32 c-11 -27 -23 -50 -26 -50 -8 1 -64
51 -60 53 14 9 95 46 101 46 3 1 -3 -21 -15 -49z"/>
<path d="M1333 2207 c-4 -8 -16 -16 -25 -20 -24 -8 -44 -47 -24 -47 7 0 16 -7
20 -15 5 -14 -10 -20 -39 -16 -5 1 -2 -5 7 -12 10 -8 16 -16 13 -19 -3 -2 9
-2 27 0 22 3 35 0 45 -14 7 -10 13 -13 13 -7 0 14 -20 30 -45 36 -20 5 -20 5
0 6 52 3 88 -68 51 -98 -12 -10 -13 -8 -9 8 3 12 1 21 -5 21 -6 0 -13 8 -16
18 -4 13 -4 13 -3 -3 1 -11 -2 -25 -6 -31 -4 -7 0 -17 8 -24 13 -10 19 -10 34
4 17 15 18 15 27 -6 21 -48 7 -60 -103 -92 l-52 -15 6 30 c3 17 0 41 -7 55
-20 36 -3 78 33 82 34 4 35 -11 2 -26 -14 -6 -25 -20 -25 -29 0 -16 2 -16 18
3 9 12 25 24 35 28 28 9 15 31 -21 34 -21 2 -30 7 -26 15 3 7 -4 1 -15 -12
-12 -13 -21 -33 -22 -45 -1 -11 -2 -50 -2 -84 l-2 -64 -42 -23 c-39 -22 -53
-23 -53 -3 0 5 5 6 12 2 7 -4 8 -3 4 5 -4 6 -12 8 -18 5 -8 -5 -9 -1 -5 10 4
10 7 20 7 22 0 9 39 4 45 -6 3 -5 -2 -10 -11 -10 -14 0 -15 -3 -6 -12 10 -10
15 -10 22 2 11 18 -6 40 -30 40 -10 0 -20 9 -23 20 -3 11 -17 24 -32 30 -30
11 -28 36 2 33 24 -3 99 -74 106 -100 3 -12 5 -8 6 10 0 15 -3 27 -9 27 -5 0
-10 6 -10 14 0 7 -10 17 -22 20 -22 7 -22 8 -4 15 18 7 18 8 2 14 -10 4 -26 7
-37 7 -10 0 -19 5 -19 10 0 15 41 12 75 -5 l30 -15 -24 20 c-20 17 -34 20 -85
16 -54 -4 -64 -9 -88 -38 -33 -38 -35 -66 -8 -101 27 -35 25 -46 -10 -54 -17
-3 -32 -9 -35 -13 -2 -4 7 -5 20 -2 18 3 25 0 25 -12 0 -10 -9 -16 -22 -16
-21 -1 -21 -2 -5 -11 19 -11 37 -4 37 15 0 8 6 26 14 41 l14 27 17 -26 c19
-28 35 -26 35 4 0 22 -32 43 -53 34 -16 -6 -47 36 -46 63 0 13 3 12 10 -6 17
-43 27 -50 60 -41 27 8 30 6 45 -28 15 -36 15 -37 -13 -61 -15 -13 -47 -41
-70 -62 l-41 -39 -25 54 c-38 83 -42 100 -23 93 9 -4 16 -2 16 3 0 6 -7 10
-15 10 -9 0 -15 9 -14 23 1 12 3 15 5 7 5 -15 63 -54 71 -46 2 2 -7 15 -21 29
-14 15 -26 21 -27 14 0 -7 -5 1 -10 17 -5 18 -5 34 1 41 5 6 11 22 13 36 9 61
154 92 227 48 l35 -21 -20 22 c-20 23 -20 23 0 17 19 -7 19 -6 3 7 -23 17
-144 12 -191 -7 -90 -38 -162 -140 -192 -270 -5 -24 -8 -27 -21 -16 -23 19
-43 -5 -26 -31 14 -22 5 -46 -24 -71 -21 -17 -74 -99 -74 -113 1 -6 8 2 16 17
9 16 18 26 21 24 3 -3 0 -13 -5 -23 -7 -12 -6 -24 1 -36 9 -14 7 -21 -11 -38
-14 -14 -22 -16 -23 -8 -1 7 -5 2 -9 -12 -7 -22 -8 -21 -9 13 -1 20 4 37 9 37
6 0 10 -6 10 -12 0 -9 3 -8 9 2 7 10 4 18 -10 28 -27 19 -38 7 -32 -36 9 -66
24 -100 53 -123 l28 -23 -29 -27 c-28 -26 -34 -49 -30 -106 2 -18 -3 -21 -31
-20 -27 2 -34 -2 -36 -20 -2 -12 5 -27 16 -35 10 -7 21 -21 25 -31 4 -11 12
-15 18 -11 8 5 10 -1 6 -18 -4 -14 0 -49 9 -77 12 -41 30 -68 85 -124 60 -61
86 -77 43 -27 -7 8 -14 19 -16 25 -2 5 -10 11 -18 12 -33 5 -93 110 -93 164 0
53 9 61 53 54 40 -7 80 9 80 32 0 7 7 13 15 13 20 0 20 -54 -1 -74 -8 -9 -24
-16 -35 -16 -10 0 -19 -5 -19 -11 0 -17 -21 1 -31 28 -12 32 -24 23 -15 -11 3
-14 16 -31 28 -37 18 -9 24 -8 34 6 7 9 17 14 23 10 19 -11 12 -35 -11 -45
-22 -8 -22 -9 5 -9 23 -1 27 3 27 25 0 22 2 24 15 14 20 -16 65 -117 65 -145
0 -21 -2 -22 -47 -14 -30 6 -51 5 -57 -1 -5 -5 -8 -10 -5 -11 73 -12 144 -31
156 -41 33 -27 5 -37 -41 -13 -15 8 -32 13 -36 10 -4 -3 -13 2 -20 10 -7 8
-17 15 -23 15 -5 0 -2 -9 7 -19 20 -22 18 -56 -4 -56 -9 0 -14 7 -12 20 3 19
3 19 -15 2 -17 -18 -17 -19 1 -32 12 -9 25 -11 35 -6 19 11 43 -27 28 -46 -12
-16 9 -44 27 -37 7 3 18 -5 24 -18 l12 -23 -6 23 c-6 24 5 29 23 11 31 -31 37
34 9 89 -21 40 -10 41 32 1 24 -22 32 -38 31 -62 l-1 -32 -8 30 c-8 33 -13 25
-10 -16 1 -29 -23 -54 -45 -45 -9 3 -15 0 -15 -9 0 -18 -36 -20 -46 -3 -5 8
-2 9 9 5 14 -5 15 -3 4 14 -10 16 -13 17 -15 4 -2 -8 -8 -15 -14 -15 -6 0 1
-12 16 -26 14 -15 26 -34 26 -44 0 -23 11 -32 26 -19 9 8 17 3 30 -17 l18 -26
18 22 c20 25 58 20 58 -8 1 -26 49 -77 62 -64 7 7 19 6 39 -4 16 -8 43 -21 60
-29 33 -16 49 -13 49 10 0 7 6 16 13 18 7 4 6 6 -4 6 -9 1 -23 8 -30 18 -13
15 -12 15 8 4 24 -12 41 -2 73 47 11 16 25 24 50 24 36 2 82 -6 99 -16 5 -3
30 1 56 9 64 19 99 10 127 -31 13 -19 29 -36 36 -39 8 -3 2 9 -12 26 -14 17
-26 36 -26 44 0 17 27 38 38 31 6 -3 15 1 22 9 14 17 60 21 60 5 0 -5 -6 -10
-13 -10 -18 0 -47 -32 -47 -51 0 -8 6 -3 13 11 7 14 20 26 29 28 13 2 16 -5
15 -37 -2 -39 -18 -54 -32 -31 -4 6 -10 8 -15 5 -5 -3 -16 5 -24 17 -9 12 -16
18 -16 12 0 -6 9 -23 21 -38 18 -23 19 -27 4 -32 -9 -4 -32 5 -56 21 -30 22
-43 25 -51 17 -19 -19 -31 -14 -25 10 6 20 5 20 -11 5 -14 -14 -14 -22 -5 -47
12 -33 0 -41 -27 -17 -12 10 -12 9 -1 -5 7 -9 22 -18 33 -20 31 -4 35 -28 5
-28 -59 0 -73 66 -25 117 12 13 17 23 10 23 -6 0 -20 -12 -31 -26 -24 -30 -27
-84 -9 -114 11 -17 9 -23 -10 -42 l-23 -23 -19 23 c-17 21 -17 26 -4 57 8 20
12 46 8 59 -6 26 -54 77 -54 58 0 -7 4 -12 10 -12 5 0 12 -11 16 -25 7 -27 -9
-55 -31 -55 -11 0 -11 6 -2 30 9 25 9 33 -5 47 -16 15 -17 15 -11 -5 6 -23 -6
-29 -24 -11 -7 7 -15 5 -27 -6 -9 -9 -16 -13 -16 -9 0 3 -6 2 -13 -4 -8 -7
-11 -25 -9 -47 6 -48 38 -69 92 -62 22 3 40 2 40 -1 1 -16 52 -64 58 -55 35
51 51 63 74 54 47 -18 117 33 102 73 -3 9 -1 16 4 16 12 0 39 -25 44 -41 2 -7
14 -5 36 5 89 44 90 44 101 33 9 -9 18 -4 36 18 13 17 24 38 25 47 0 24 40 35
55 14 16 -22 32 -20 45 5 9 16 14 18 26 8 11 -9 17 -5 29 24 19 46 19 47 -5
47 -11 0 -20 7 -20 15 0 9 -6 12 -15 9 -21 -8 -45 14 -45 40 0 17 -2 18 -10 6
-7 -11 -10 -7 -10 17 0 32 23 63 63 84 21 12 21 10 0 -32 -15 -29 -19 -76 -8
-87 2 -2 13 2 26 8 20 11 21 10 16 -9 -3 -12 -1 -19 4 -15 5 3 9 12 9 20 0 8
5 14 10 14 14 0 12 -12 -5 -38 -14 -20 -14 -21 0 -16 8 3 15 1 15 -6 0 -6 5
-8 11 -4 8 4 7 9 -2 15 -12 7 -11 14 3 39 17 30 17 32 -5 62 -18 25 -23 27
-26 12 -2 -10 4 -23 13 -29 22 -16 20 -25 -4 -25 -11 0 -20 5 -20 12 0 6 -7 3
-15 -8 -13 -18 -14 -16 -14 21 0 45 10 63 54 91 26 16 28 16 16 1 -10 -13 -10
-17 -1 -17 8 0 11 -10 8 -29 -2 -17 -1 -28 4 -25 4 3 8 12 8 20 0 11 4 12 19
5 13 -7 23 -6 36 3 15 11 16 15 4 34 -12 19 -8 26 47 84 70 73 91 109 99 169
5 43 5 42 -10 -10 -16 -56 -73 -146 -93 -146 -6 0 -18 -9 -26 -20 -14 -18 -15
-18 -16 -2 0 19 1 19 -57 8 -36 -7 -43 -6 -43 8 0 24 46 131 64 149 15 15 16
15 17 -3 1 -11 1 -23 0 -27 0 -5 14 -7 32 -7 24 1 26 3 9 6 -28 5 -39 30 -23
46 10 9 15 8 22 -5 6 -10 14 -18 19 -18 19 0 50 40 49 63 -1 19 -3 17 -15 -10
-13 -30 -34 -45 -34 -24 0 5 -13 11 -29 14 -22 5 -31 13 -36 36 -7 32 -1 51
16 51 5 0 9 -7 9 -16 0 -8 4 -13 9 -10 5 3 12 -1 15 -10 5 -13 15 -15 46 -10
25 4 47 2 60 -6 17 -11 24 -9 50 21 41 44 38 77 -6 75 -32 -2 -32 -1 -32 49 0
43 -4 55 -27 74 l-26 23 30 30 c18 19 33 46 36 68 4 20 9 49 11 64 6 32 -9 44
-35 26 -14 -10 -17 -18 -10 -28 6 -10 9 -11 9 -2 0 6 6 12 13 12 9 0 12 -11 8
-37 -4 -31 -5 -34 -10 -15 -3 13 -9 23 -14 22 -4 0 -15 4 -25 9 -14 8 -15 14
-6 28 9 14 8 25 -3 46 -8 16 -17 27 -20 24 -2 -3 0 -14 6 -25 15 -28 3 -59
-27 -68 -41 -12 -76 -12 -84 0 -14 20 -8 64 8 70 13 5 15 15 11 46 l-5 40 29
-21 c16 -11 29 -25 29 -31 0 -6 -7 -5 -17 3 -14 11 -14 8 2 -11 11 -14 21 -27
22 -28 1 -2 7 6 13 18 9 18 8 25 -6 41 -9 10 -26 19 -36 19 -10 0 -21 7 -25
16 -9 24 -24 -5 -18 -36 3 -14 0 -32 -5 -40 -8 -11 -11 -1 -9 40 3 100 -1 175
-11 190 -15 24 -20 6 -9 -31 14 -44 -1 -102 -36 -144 -24 -29 -25 -29 -40 -11
-8 10 -12 23 -8 29 3 6 1 7 -4 4 -6 -4 -16 0 -22 7 -9 11 -9 16 0 22 7 4 15 2
17 -4 6 -20 37 -13 62 13 13 14 21 27 18 30 -3 3 -11 -1 -18 -10 -20 -25 -34
-17 -16 10 19 30 21 41 3 26 -8 -6 -17 -7 -21 -3 -5 4 -7 -2 -6 -13 4 -32 1
-45 -10 -45 -16 0 -11 37 10 77 27 51 27 134 -1 179 -23 37 -31 43 -23 17 5
-15 3 -15 -10 1 -22 28 -20 7 4 -32 11 -18 20 -42 21 -55 1 -21 1 -21 9 3 l8
25 1 -27 c1 -19 -4 -28 -14 -28 -9 0 -15 9 -15 21 0 18 -3 17 -26 -11 -37 -44
-53 -24 -20 25 14 21 26 41 26 45 0 4 -17 25 -37 47 -37 39 -39 40 -106 39
-56 -1 -65 1 -50 12 9 6 42 12 73 12 108 0 209 -90 246 -218 34 -118 46 -143
83 -173 21 -16 48 -48 60 -70 13 -22 25 -38 28 -35 7 6 -31 62 -78 118 -30 35
-31 38 -15 54 16 15 16 18 2 32 -12 12 -18 13 -29 3 -13 -10 -17 -3 -27 41
-17 72 -43 121 -93 175 -60 66 -103 84 -202 87 -75 2 -86 5 -104 27 l-20 24
17 -36 c14 -29 20 -35 34 -28 9 5 23 9 30 9 7 -1 0 -8 -16 -16 -20 -11 -25
-18 -16 -24 9 -5 9 -9 1 -14 -6 -4 -11 -2 -11 4 0 6 -5 8 -10 5 -6 -4 -9 -3
-8 2 1 4 -1 17 -5 29 -5 15 -17 21 -46 22 -39 3 -69 -17 -41 -26 8 -3 26 -19
42 -36 15 -17 28 -25 28 -18 0 14 -36 52 -50 52 -5 0 -10 5 -10 11 0 6 12 9
27 7 36 -4 53 -46 34 -82 -8 -14 -11 -38 -7 -57 3 -19 3 -28 0 -21 -3 6 -10
10 -14 7 -5 -3 -38 4 -73 15 -69 22 -82 38 -62 77 11 21 13 21 28 5 16 -15 18
-15 35 2 12 13 13 20 5 23 -7 2 -9 12 -6 21 6 14 5 15 -9 2 -8 -8 -13 -23 -10
-35 5 -18 4 -18 -11 -6 -9 7 -17 22 -17 33 0 25 18 58 32 58 7 0 6 -5 -2 -15
-7 -9 -10 -18 -6 -22 3 -3 6 -1 6 6 0 6 10 16 23 21 15 6 17 9 5 9 -9 1 -18 7
-21 14 -8 24 -36 -13 -52 -69 -12 -42 -23 -59 -47 -74 -17 -10 -36 -16 -41
-13 -6 3 -7 1 -3 -5 5 -8 -1 -12 -16 -12 -18 0 -20 2 -8 10 9 6 10 10 3 10 -6
0 -14 -4 -17 -9 -10 -16 -66 -19 -66 -3 0 10 8 12 33 7 l32 -6 -27 16 c-17 9
-32 32 -43 62 -24 68 -29 77 -54 89 -14 7 -19 14 -12 18 6 4 16 4 23 0 7 -5 8
-3 3 5 -4 8 -18 11 -33 8 -14 -3 -31 1 -39 9 -11 11 -10 15 7 24 22 12 33 8
68 -23 12 -11 22 -16 22 -9 0 6 -11 19 -25 30 -14 11 -25 26 -25 33 0 7 14 0
32 -17 18 -16 25 -20 15 -8 -9 11 -17 26 -17 32 0 16 -37 15 -47 -1z m-269
-226 c-3 -16 0 -32 6 -36 6 -3 8 -10 5 -15 -3 -4 3 -6 14 -3 10 3 22 0 25 -5
7 -12 1 -17 -37 -26 -24 -6 -30 -3 -34 13 -3 12 -9 18 -14 15 -17 -10 -9 34
12 60 26 33 28 33 23 -3z m851 19 c4 -6 -6 -10 -22 -10 -15 0 -35 -5 -43 -11
-13 -9 -12 -10 2 -5 10 3 20 1 23 -4 3 -5 -6 -12 -20 -16 -13 -3 -23 -10 -20
-14 3 -4 -2 -13 -10 -20 -8 -7 -14 -22 -14 -34 1 -19 2 -19 6 -2 5 20 50 66
64 66 5 0 9 6 9 14 0 7 10 16 22 19 43 12 53 -18 12 -33 -14 -6 -28 -19 -31
-30 -3 -11 -14 -20 -24 -20 -10 0 -20 -4 -23 -9 -3 -4 6 -6 19 -3 19 3 27 -1
34 -19 7 -17 10 -19 10 -7 1 24 15 30 44 19 26 -10 47 4 60 39 5 13 6 13 6 0
2 -27 -29 -61 -49 -55 -21 7 -52 -21 -48 -43 4 -20 28 -28 28 -9 0 8 6 20 13
26 11 8 16 5 25 -15 7 -14 12 -31 12 -39 0 -20 44 -24 63 -6 4 4 -6 6 -23 3
-23 -3 -30 0 -30 12 0 10 9 16 23 17 16 1 18 2 5 6 -17 4 -17 6 -1 21 11 12
18 13 20 5 3 -7 11 -9 19 -6 21 8 17 -15 -16 -85 l-30 -64 -49 47 c-26 25 -58
53 -70 62 -14 10 -20 21 -16 32 5 12 3 13 -5 5 -9 -9 -23 -5 -56 13 l-43 24 2
56 c1 44 6 57 19 59 9 1 24 7 35 13 23 13 60 14 68 1z m85 -56 c0 -28 -33 -53
-62 -47 -32 6 -37 28 -8 36 25 6 41 46 28 67 -6 8 1 2 16 -13 14 -15 26 -35
26 -43z m-1060 -1 c-26 -49 -26 -122 0 -173 11 -22 20 -48 20 -59 0 -10 7 -22
16 -25 13 -5 14 -9 4 -21 -7 -8 -17 -12 -24 -8 -6 3 -8 3 -4 -2 8 -9 -9 -45
-21 -45 -5 0 -21 18 -35 39 -28 40 -36 102 -21 150 3 12 2 21 -3 21 -6 0 -13
-17 -17 -37 -8 -52 -9 -172 -1 -180 3 -3 6 11 6 32 0 66 20 25 27 -54 5 -58 3
-75 -11 -89 -9 -10 -14 -21 -11 -24 12 -11 -18 -66 -42 -77 -32 -15 -45 -4
-19 15 17 12 17 14 3 14 -9 0 -21 -9 -27 -20 -13 -24 -30 -26 -30 -5 0 8 5 15
10 15 17 0 11 38 -7 45 -15 5 -16 4 -5 -6 19 -20 14 -31 -10 -24 -16 6 -26 1
-39 -16 -18 -24 -18 -24 -6 21 11 38 17 45 41 48 29 4 70 -23 60 -39 -3 -5 2
-9 10 -9 19 0 21 26 4 34 -9 4 -8 5 2 5 8 -1 20 -1 26 0 17 2 34 51 29 84 -4
31 -15 50 -15 26 0 -12 -2 -12 -9 1 -6 8 -7 26 -4 41 5 27 -10 48 -22 29 -3
-5 -15 -10 -25 -10 -10 0 -30 -15 -44 -32 -14 -18 -26 -28 -26 -21 0 7 22 34
49 60 44 42 53 57 71 127 24 92 39 123 81 171 40 45 44 44 19 -2z m739 -84
c101 -28 183 -72 254 -138 232 -215 280 -562 116 -838 -45 -75 -140 -171 -214
-215 -102 -62 -203 -90 -319 -90 -60 1 -125 7 -160 17 -176 47 -329 174 -410
340 -184 371 11 820 401 925 96 26 236 26 332 -1z m479 -274 c-1 -70 1 -88 17
-105 14 -15 21 -17 32 -9 10 9 13 7 13 -6 0 -17 1 -17 18 -2 41 38 92 12 92
-45 -1 -21 -1 -21 -11 -5 -8 13 -18 17 -35 13 -26 -7 -31 2 -12 24 7 8 4 7 -7
-3 -20 -18 -20 -18 -1 -33 16 -12 18 -16 7 -27 -8 -7 -15 -8 -17 -2 -10 23
-21 32 -49 39 l-30 7 33 -20 c43 -27 41 -45 -2 -24 -31 14 -47 40 -51 78 0 6
-7 21 -14 34 -17 31 -4 171 15 171 3 0 4 -38 2 -85z m-1335 32 c-3 -24 0 -39
12 -50 10 -11 15 -29 13 -49 -3 -29 -7 -33 -33 -34 -61 -1 -105 38 -85 76 11
21 30 27 30 10 0 -19 15 -10 27 16 10 22 10 24 -3 14 -8 -7 -14 -9 -14 -4 0 6
48 52 57 54 1 0 -1 -15 -4 -33z m92 -11 c12 -11 12 -17 1 -31 -12 -17 -14 -16
-18 13 -5 36 -3 38 17 18z m-172 -216 c3 -11 12 -20 21 -20 9 0 16 -5 16 -11
0 -6 14 -1 31 11 16 12 33 19 37 15 10 -10 -37 -45 -59 -45 -29 0 -69 30 -69
51 0 25 16 24 23 -1z m1542 -26 c-37 -29 -68 -31 -96 -3 -29 29 -16 36 19 10
l30 -21 28 28 c17 17 33 24 39 19 6 -5 -1 -17 -20 -33z m-1467 -51 c16 -119
15 -126 -22 -162 l-36 -35 0 30 c0 17 -5 35 -12 42 -9 9 -8 12 5 12 9 0 21 9
27 19 14 26 13 29 -7 27 -14 -1 -18 6 -16 34 1 33 0 34 -13 16 -18 -25 -18
-41 1 -60 20 -19 19 -26 -3 -26 -11 0 -24 11 -30 25 -15 32 -15 38 -2 30 6 -4
7 1 3 12 -6 14 -9 13 -19 -12 -9 -23 -9 -31 -1 -33 15 -3 57 -76 57 -97 0 -25
-24 -12 -28 15 l-4 23 -11 -23 c-14 -28 -43 -47 -54 -37 -4 5 -1 12 7 17 15 9
22 33 21 70 -2 64 0 75 14 96 23 35 119 48 123 17z m1476 7 c35 -13 49 -45 47
-107 0 -29 4 -53 9 -53 6 0 13 0 18 0 4 0 7 5 7 12 0 16 22 22 30 8 11 -19
-17 -42 -44 -37 -23 5 -24 4 -8 -8 9 -7 17 -15 17 -19 0 -14 -22 -5 -45 19
-23 22 -25 23 -25 5 0 -24 -18 -26 -27 -4 -3 8 4 28 16 44 27 37 26 38 -4 32
-27 -5 -35 12 -10 22 19 7 20 50 1 65 -12 10 -14 6 -13 -21 2 -25 -2 -33 -14
-32 -9 1 -22 -8 -29 -20 -12 -19 -11 -20 2 -8 13 10 17 10 22 -3 3 -8 12 -15
21 -15 12 0 14 -4 5 -19 -5 -11 -10 -30 -10 -42 0 -22 -2 -21 -35 11 -29 30
-34 42 -35 82 0 26 5 50 11 54 6 3 9 15 6 25 -4 16 0 19 28 19 19 0 45 -4 59
-10z m-1648 -145 c-3 -8 2 -19 12 -24 15 -9 15 -10 -3 -11 -12 0 -26 5 -32 11
-15 15 -5 39 14 39 9 0 13 -6 9 -15z m1555 -349 c-7 -8 -11 -25 -9 -37 2 -12
-2 -24 -8 -26 -20 -7 -25 29 -9 53 9 14 11 24 5 24 -6 0 -13 -7 -17 -16 -3 -8
-12 -13 -19 -10 -7 3 -26 -1 -41 -9 -32 -17 -53 -19 -53 -6 0 17 26 30 85 44
63 14 87 8 66 -17z m-1275 -44 c19 -17 34 -43 38 -66 8 -42 4 -52 -16 -40 -7
5 -23 7 -35 5 -13 -1 -23 2 -23 8 0 6 7 11 15 11 22 0 19 52 -6 84 -27 34 -11
33 27 -2z m-21 -22 c7 -23 -2 -43 -16 -35 -12 8 -12 55 0 55 5 0 12 -9 16 -20z
m172 -97 c-3 -15 0 -22 7 -20 19 6 38 -21 30 -45 -3 -13 -3 -20 1 -16 5 5 14
-1 22 -12 17 -24 39 -26 47 -4 4 12 1 14 -14 9 -16 -5 -23 0 -35 29 -20 48
-19 63 3 44 9 -9 35 -25 57 -36 23 -12 32 -21 23 -22 -10 0 -18 -3 -19 -7 -5
-49 -4 -70 3 -79 5 -7 7 -18 6 -25 -2 -8 8 -15 22 -17 23 -3 50 -26 50 -43 0
-16 -107 33 -132 61 -33 36 -46 39 -24 5 18 -27 20 -35 8 -35 -19 0 -42 60
-38 101 2 24 2 35 -1 24 -8 -34 -21 -40 -28 -12 -4 14 -2 36 5 49 l11 23 -19
-24 c-27 -34 -37 -12 -21 49 10 41 15 47 27 38 7 -7 12 -22 9 -35z m908 -61
c-5 -13 -8 -12 -20 5 -22 32 -29 71 -14 89 11 14 15 9 27 -31 7 -26 11 -54 7
-63z m-99 3 c-13 -29 -19 -35 -36 -30 -15 5 -18 3 -14 -9 8 -20 23 -20 46 1
14 13 18 13 19 2 1 -8 5 4 8 25 3 22 11 41 17 43 16 5 37 -51 29 -77 -8 -26
-15 -21 -26 22 -7 26 -7 22 -3 -20 3 -39 0 -60 -13 -82 -9 -17 -21 -30 -25
-30 -12 0 -10 8 8 35 10 15 12 25 5 25 -6 0 -11 -6 -11 -14 0 -19 -51 -55 -89
-62 -17 -4 -34 -11 -37 -15 -11 -18 -24 2 -14 22 7 12 21 19 41 19 25 0 29 3
24 19 -3 11 -2 22 3 25 6 3 8 20 6 38 -1 18 -3 36 -3 41 -1 4 -9 7 -18 7 -10
1 0 10 22 21 22 11 47 26 55 35 21 21 24 2 6 -41z m-847 -32 c12 -9 13 -14 4
-24 -9 -9 -15 -9 -26 0 -12 9 -14 6 -10 -16 l4 -28 -19 23 c-11 12 -27 20 -35
16 -10 -3 -16 3 -19 18 -3 18 0 24 14 25 9 1 20 -2 23 -8 11 -17 23 -9 31 19
6 23 8 24 12 7 2 -11 12 -25 21 -32z m981 15 c0 -14 5 -18 15 -14 23 9 19 -28
-6 -50 -22 -19 -22 -19 -17 9 4 22 3 25 -9 16 -11 -9 -17 -9 -26 0 -9 10 -8
14 6 22 9 6 17 19 17 30 0 11 5 17 10 14 6 -3 10 -15 10 -27z m-740 -23 c7 -8
16 -12 22 -9 11 7 38 -14 38 -31 0 -15 -40 -68 -47 -61 -3 2 1 15 8 28 l12 23
-23 -20 c-13 -11 -20 -14 -16 -7 14 23 -3 61 -29 68 -14 3 -25 10 -25 15 0 15
47 10 60 -6z m-16 -37 c13 -22 -2 -51 -30 -57 -16 -3 -16 -1 -5 12 9 12 10 21
2 36 -6 11 -11 23 -11 26 0 13 33 0 44 -17z m141 -93 c0 -14 -6 -19 -18 -17
-14 3 -18 -2 -15 -20 2 -18 11 -24 38 -29 l35 -6 -32 -2 c-35 -1 -73 27 -73
53 0 21 30 48 49 44 9 -2 16 -12 16 -23z m259 9 c21 -21 20 -40 -4 -64 -13
-13 -32 -19 -52 -18 l-33 1 32 4 c31 4 60 33 46 47 -13 12 -22 6 -16 -11 3
-12 0 -10 -12 5 -30 41 4 72 39 36z m-184 -24 c0 -26 -40 -45 -74 -36 -36 9
-33 21 6 23 17 1 39 9 47 18 20 19 21 19 21 -5z"/>
<path d="M880 1734 c0 -21 41 -64 61 -64 10 0 19 3 19 6 0 12 -26 30 -37 27
-6 -2 -18 6 -27 19 -9 12 -16 18 -16 12z"/>
<path d="M1440 1860 c-143 -19 -254 -74 -357 -176 -57 -57 -80 -90 -116 -165
-25 -52 -50 -118 -56 -147 -16 -76 -14 -228 4 -297 59 -231 264 -428 486 -465
271 -46 529 84 654 330 40 80 53 123 65 220 30 258 -102 515 -326 632 -110 58
-241 83 -354 68z m-21 -158 c-50 -43 -69 -84 -70 -154 -2 -49 -2 -50 -9 -18
l-7 35 -2 -45 c-1 -32 -7 -51 -20 -62 -14 -12 -21 -13 -25 -5 -2 7 -5 2 -5
-11 -1 -22 0 -22 28 -8 16 9 31 22 34 31 4 10 21 16 49 17 l43 1 -37 4 c-30 3
-38 9 -38 24 0 22 21 25 66 9 28 -10 29 -13 29 -70 0 -54 3 -62 35 -95 19 -19
48 -39 65 -44 l30 -8 -30 -15 c-16 -9 -62 -19 -101 -23 -67 -6 -73 -5 -88 16
-20 29 -21 59 -1 59 27 0 16 17 -15 24 -18 3 -30 12 -30 21 0 8 -2 15 -4 15
-2 0 -11 3 -20 6 -11 4 -16 1 -16 -11 0 -9 4 -14 9 -11 13 9 38 -25 50 -69 7
-24 10 -128 10 -260 -1 -121 -3 -212 -6 -202 -2 9 -9 17 -14 17 -5 0 -9 11 -9
24 0 14 -4 27 -9 30 -8 6 -18 81 -24 193 -1 22 -5 39 -9 36 -5 -2 -8 23 -8 56
0 43 6 70 20 93 26 44 27 71 1 63 -19 -6 -20 1 -21 214 l0 219 64 21 c101 32
104 31 109 -36 l3 -58 4 65 4 65 3 -59 c4 -58 4 -58 -38 -94z m130 101 l-2
-48 -6 40 -7 40 -5 -42 -5 -43 42 0 c82 0 161 -43 224 -123 34 -42 40 -57 39
-96 0 -42 -1 -44 -14 -26 -41 59 -37 58 -75 12 -32 -39 -33 -41 -8 -24 37 23
47 22 58 -9 12 -32 -13 -71 -73 -115 -33 -24 -50 -29 -97 -29 -98 0 -147 58
-135 160 7 64 -2 80 -61 105 -19 8 -34 19 -34 26 0 16 64 75 88 81 21 6 96
-24 156 -61 32 -20 37 -27 31 -50 -6 -24 -5 -24 12 -10 35 31 48 30 15 0 -18
-17 -28 -31 -23 -31 6 0 13 5 16 10 3 6 11 10 17 10 6 0 3 -9 -6 -19 -30 -34
-13 -46 22 -16 18 15 37 23 43 19 8 -5 10 -2 6 8 -3 9 -1 21 4 27 6 7 5 8 -2
2 -7 -6 -35 9 -77 42 -74 55 -135 86 -170 87 -14 0 -21 4 -16 11 4 8 0 9 -15
4 -20 -6 -21 -3 -21 49 l0 56 40 0 40 0 -1 -47z m97 29 c7 -4 14 -18 17 -32
l4 -25 2 27 1 26 45 -17 c60 -23 63 -29 14 -29 -22 -1 -43 -3 -46 -6 -5 -5 73
-29 97 -29 8 0 21 -8 28 -19 14 -19 42 -25 42 -8 0 6 -6 10 -14 10 -8 0 -18 5
-21 10 -12 19 20 9 50 -15 29 -24 29 -24 10 -45 -10 -11 -24 -19 -31 -16 -7 3
-11 0 -9 -7 3 -7 1 -18 -4 -26 -7 -11 -13 -10 -30 6 l-21 20 20 18 c11 10 20
21 20 25 0 4 -26 18 -57 30 -32 12 -66 26 -76 31 -10 5 -22 7 -27 4 -6 -4 -10
6 -11 22 -1 28 -1 28 -8 3 -5 -18 -15 -26 -34 -28 -25 -3 -27 -1 -27 37 0 38
2 41 28 41 15 0 32 -4 38 -8z m-386 -269 c0 -124 -3 -223 -7 -220 -3 4 -21 -3
-39 -14 l-34 -20 -3 208 -2 208 -5 -215 -4 -215 -6 205 -6 205 -2 -206 c-2
-173 -4 -208 -17 -213 -8 -3 -15 -12 -15 -21 0 -8 -4 -15 -10 -15 -17 0 -12
-129 5 -146 9 -9 16 -36 16 -67 l2 -52 7 40 7 40 3 -45 3 -45 7 35 c5 22 8
-16 9 -104 0 -77 3 -137 6 -134 3 2 6 56 7 119 1 63 4 101 6 86 3 -27 4 -28
22 -12 10 9 24 14 30 10 14 -9 1 -28 -16 -21 -8 3 -11 0 -7 -10 3 -7 9 -14 14
-14 5 0 9 -7 9 -15 0 -23 28 -18 35 6 8 25 13 21 25 -21 5 -18 7 -30 3 -27 -3
4 -17 -3 -31 -13 -13 -11 -30 -20 -37 -20 -16 0 -27 53 -13 61 7 5 -15 39 -25
39 -6 0 0 -120 6 -126 11 -11 9 -44 -3 -44 -5 0 -10 -9 -10 -20 0 -11 5 -20
10 -20 6 0 10 -7 10 -15 0 -13 -6 -11 -32 7 -90 62 -218 230 -218 285 0 13 -4
23 -8 23 -29 0 -40 271 -16 370 7 25 11 -20 14 -160 l6 -195 2 213 c2 209 2
213 29 265 15 28 31 54 35 55 4 2 8 10 8 18 0 9 5 12 10 9 6 -3 11 2 12 12 1
10 5 -101 8 -247 l6 -265 2 271 2 270 30 29 29 28 4 -119 3 -119 2 123 c2 133
2 132 64 170 l37 23 4 -123 3 -123 2 128 c1 70 4 127 7 127 3 0 5 -102 5 -227z
m673 107 c15 -18 17 -54 19 -348 l3 -327 5 320 c4 246 6 286 10 175 l4 -145 6
135 c3 74 7 127 8 118 1 -10 5 -18 10 -18 13 0 42 -61 42 -88 0 -21 2 -24 10
-12 8 12 10 9 10 -12 0 -16 4 -28 8 -28 15 0 36 -126 36 -217 -1 -118 -34
-232 -94 -323 l-30 -45 -3 215 -2 215 -4 -230 c-4 -285 -20 -256 -30 55 l-7
205 -4 -165 c-2 -91 -3 -176 -3 -190 1 -19 -3 -15 -18 19 -11 24 -18 49 -16
55 5 13 -24 66 -35 66 -4 0 -9 39 -10 88 l-2 87 -3 -79 -4 -79 -29 28 c-28 27
-30 34 -32 114 l-2 86 -5 -80 c-3 -44 -3 -84 2 -89 4 -6 7 -16 7 -24 0 -12 -3
-12 -16 -1 -8 7 -13 21 -11 31 3 10 1 21 -4 24 -5 3 -10 31 -11 62 l-1 57 -6
-55 -6 -55 -63 -22 c-35 -13 -83 -37 -107 -53 l-45 -31 11 28 c5 15 8 37 5 48
-5 18 1 23 37 32 23 7 58 23 78 36 l36 24 18 -29 c9 -16 19 -27 22 -25 2 3 -5
20 -16 38 -27 44 -26 57 4 69 63 24 144 145 145 216 0 27 22 74 35 74 6 0 3 5
-5 11 -11 8 -12 12 -2 16 6 2 12 13 12 24 0 25 21 24 43 -1z m-208 -110 c-10
-11 -23 -20 -28 -20 -6 0 -2 9 8 20 10 11 15 20 11 20 -4 0 -4 5 0 11 4 8 9 8
17 0 7 -7 5 -16 -8 -31z m-277 7 c29 -11 31 -14 19 -31 -11 -15 -17 -16 -35
-7 -11 6 -32 11 -46 11 -19 0 -26 5 -26 20 0 23 34 26 88 7z m-178 -272 c0 -8
-7 -15 -15 -15 -9 0 -15 9 -15 22 0 20 -1 21 -20 3 -11 -10 -17 -22 -14 -27 4
-6 10 -5 15 3 6 11 9 11 12 -1 21 -73 52 -299 42 -308 -3 -3 -11 0 -17 6 -7 7
-22 12 -35 12 -13 0 -23 4 -23 9 0 5 -16 33 -35 62 -38 55 -52 115 -41 171 5
26 17 40 59 65 53 32 87 31 87 -2z m400 12 c0 -39 -145 -105 -156 -72 -4 11
60 52 111 72 40 16 45 16 45 0z m-292 -214 c2 150 3 157 22 157 18 0 20 -7 22
-67 l2 -68 6 70 c6 67 6 64 10 -50 5 -116 4 -120 -22 -162 -16 -24 -28 -49
-28 -56 0 -8 -3 -7 -9 2 -7 11 -10 7 -14 -15 -2 -16 -4 59 -3 166 l0 195 6
-165 6 -165 2 158z m126 134 c10 -39 6 -101 -8 -129 -8 -15 -12 -35 -10 -45 5
-18 -33 -79 -43 -69 -3 2 -2 10 3 17 4 7 7 67 6 133 0 78 2 110 8 91 l8 -30 1
32 c1 37 25 37 35 0z m236 -79 c0 -17 -3 -18 -15 -8 -8 7 -15 21 -15 32 0 17
3 18 15 8 8 -7 15 -21 15 -32z m-40 1 c7 -11 9 -24 5 -27 -7 -7 -35 25 -35 40
0 16 19 8 30 -13z m-30 -26 c0 -24 -25 -9 -28 17 -3 21 -2 22 12 11 9 -7 16
-20 16 -28z m118 -50 c22 -54 42 -166 42 -242 0 -32 4 -51 11 -51 9 0 10 27 6
95 -3 54 -1 97 4 100 5 4 9 12 9 18 0 7 -4 6 -10 -3 -8 -13 -10 -12 -11 5 -1
11 -1 24 0 28 1 4 -6 21 -14 37 -9 17 -13 30 -9 30 4 0 1 7 -6 15 -7 8 -9 15
-4 15 15 0 82 -115 102 -174 10 -31 21 -53 24 -51 3 3 8 -14 12 -37 6 -41 4
-45 -43 -88 -83 -79 -244 -150 -338 -150 -26 0 -31 3 -26 17 5 12 0 10 -16 -6
-31 -31 -44 -18 -26 27 l15 37 -19 -25 c-11 -13 -19 -29 -18 -34 1 -4 -4 -11
-10 -13 -7 -3 -13 2 -13 10 0 23 11 47 19 43 4 -3 7 3 8 12 5 46 14 76 48 156
27 62 41 84 47 74 6 -9 7 -5 3 11 -5 16 -4 21 4 17 7 -5 8 -1 4 10 -4 12 -3
15 5 10 7 -4 12 -3 12 1 0 5 6 18 14 28 11 15 12 9 3 -45 -8 -49 -12 -59 -19
-44 -6 13 -7 9 -3 -15 3 -18 5 -54 5 -78 0 -31 4 -43 13 -40 8 2 12 29 12 84
0 44 5 91 11 104 6 13 21 45 33 70 11 25 21 51 21 58 0 21 20 11 21 -11 1 -22
1 -22 8 2 7 24 7 24 14 -9 4 -18 8 -77 9 -130 1 -70 3 -84 7 -51 3 25 3 83 0
130 -3 47 -4 88 -2 93 9 16 22 4 41 -40z m-186 -55 c-44 -64 -101 -182 -138
-283 -17 -49 -37 -90 -43 -89 -6 1 -17 2 -25 3 -14 1 -46 100 -46 145 0 40 33
97 81 140 45 41 190 138 197 131 2 -2 -9 -23 -26 -47z m-287 -205 c-18 -17
-18 -17 -6 0 8 9 11 20 7 24 -3 3 -6 1 -6 -5 0 -7 -19 -26 -42 -43 -33 -24
-37 -30 -18 -25 24 6 23 6 -3 -9 -16 -9 -34 -14 -40 -11 -7 2 -6 5 4 5 11 1
14 9 11 29 -3 24 1 31 27 41 17 7 36 20 42 28 11 12 14 12 28 -1 14 -15 13
-18 -4 -33z m-25 -28 c-17 -20 -1 -19 22 2 13 12 18 13 18 3 0 -7 -20 -33 -45
-56 -24 -24 -37 -40 -28 -37 11 4 14 3 9 -5 -11 -18 2 -14 35 9 16 11 29 25
29 31 0 7 -10 2 -23 -10 -13 -12 -27 -22 -31 -22 -4 0 6 11 21 24 21 19 31 22
39 13 11 -13 38 -97 32 -102 -7 -8 -124 46 -135 62 -18 23 -17 26 18 46 18 10
29 20 25 24 -6 6 11 33 21 33 3 0 0 -7 -7 -15z"/>
<path d="M1353 1740 c0 -41 2 -58 4 -37 2 20 2 54 0 75 -2 20 -4 3 -4 -38z"/>
<path d="M1373 1750 c0 -36 2 -50 4 -32 2 17 2 47 0 65 -2 17 -4 3 -4 -33z"/>
<path d="M1284 1635 c0 -49 1 -71 3 -48 2 23 2 64 0 90 -2 26 -3 8 -3 -42z"/>
<path d="M1194 1540 c0 -102 2 -143 3 -92 2 50 2 134 0 185 -1 50 -3 9 -3 -93z"/>
<path d="M1224 1525 c0 -55 1 -76 3 -47 2 29 2 74 0 100 -2 26 -3 2 -3 -53z"/>
<path d="M1084 1330 c0 -140 2 -198 3 -128 2 71 2 185 0 256 -1 70 -3 12 -3
-128z"/>
<path d="M994 1265 c0 -137 2 -195 3 -128 2 67 2 179 0 250 -1 70 -3 16 -3
-122z"/>
<path d="M1018 1405 c2 -44 6 -82 8 -84 7 -8 2 104 -6 134 -4 17 -5 -5 -2 -50z"/>
<path d="M1044 1320 c0 -58 1 -81 3 -52 2 28 2 76 0 105 -2 28 -3 5 -3 -53z"/>
<path d="M1133 1360 c0 -36 2 -50 4 -32 2 17 2 47 0 65 -2 17 -4 3 -4 -33z"/>
<path d="M974 1195 c0 -110 2 -156 3 -103 2 53 2 143 0 200 -1 57 -3 13 -3
-97z"/>
<path d="M1023 1150 c0 -36 2 -50 4 -32 2 17 2 47 0 65 -2 17 -4 3 -4 -33z"/>
<path d="M1044 1015 c0 -71 1 -99 3 -62 2 37 2 96 0 130 -2 34 -3 4 -3 -68z"/>
<path d="M1084 955 c0 -55 1 -76 3 -47 2 29 2 74 0 100 -2 26 -3 2 -3 -53z"/>
<path d="M1063 925 c0 -44 2 -61 4 -37 2 23 2 59 0 80 -2 20 -4 1 -4 -43z"/>
<path d="M1154 855 c0 -55 1 -76 3 -47 2 29 2 74 0 100 -2 26 -3 2 -3 -53z"/>
<path d="M1133 850 c0 -36 2 -50 4 -32 2 17 2 47 0 65 -2 17 -4 3 -4 -33z"/>
<path d="M1934 1500 c0 -80 2 -112 3 -72 2 39 2 105 0 145 -1 39 -3 7 -3 -73z"/>
<path d="M1884 1425 c0 -99 2 -138 3 -87 2 51 2 132 0 180 -1 48 -3 6 -3 -93z"/>
<path d="M1864 1475 c0 -55 1 -76 3 -47 2 29 2 74 0 100 -2 26 -3 2 -3 -53z"/>
<path d="M2024 1390 c0 -52 1 -74 3 -47 2 26 2 68 0 95 -2 26 -3 4 -3 -48z"/>
<path d="M2044 1360 c0 -52 1 -74 3 -47 2 26 2 68 0 95 -2 26 -3 4 -3 -48z"/>
<path d="M2064 1315 c0 -55 1 -76 3 -47 2 29 2 74 0 100 -2 26 -3 2 -3 -53z"/>
<path d="M1824 1285 c0 -55 1 -76 3 -47 2 29 2 74 0 100 -2 26 -3 2 -3 -53z"/>
<path d="M1864 1230 c0 -63 1 -89 3 -57 2 31 2 83 0 115 -2 31 -3 5 -3 -58z"/>
<path d="M1793 1260 c0 -36 2 -50 4 -32 2 17 2 47 0 65 -2 17 -4 3 -4 -33z"/>
<path d="M1994 1085 c0 -49 1 -71 3 -48 2 23 2 64 0 90 -2 26 -3 8 -3 -42z"/>
<path d="M2024 1075 c0 -55 1 -76 3 -47 2 29 2 74 0 100 -2 26 -3 2 -3 -53z"/>
<path d="M1168 1266 c-20 -14 -24 -46 -7 -46 5 0 7 -4 4 -10 -3 -5 2 -21 12
-36 15 -24 18 -25 24 -8 15 37 8 115 -10 114 -3 0 -14 -7 -23 -14z m27 -64
c-6 -15 -8 -14 -16 6 -11 29 0 52 13 28 5 -10 7 -25 3 -34z"/>
<path d="M1461 1081 c0 -33 3 -51 8 -45 5 5 5 29 1 54 l-7 45 -2 -54z"/>
<path d="M1722 934 c-1 -61 -5 -127 -8 -145 -5 -26 -4 -31 5 -23 8 7 11 52 8
145 l-3 134 -2 -111z"/>
<path d="M1697 970 c-4 -30 -6 -75 -6 -100 1 -27 5 -9 10 45 10 99 6 142 -4
55z"/>
<path d="M1792 875 c-1 -49 -5 -101 -8 -115 -5 -19 -4 -22 5 -14 8 7 11 44 8
115 l-3 104 -2 -90z"/>
<path d="M1861 859 c0 -24 5 -53 10 -64 6 -13 7 0 3 40 -8 73 -14 85 -13 24z"/>
<path d="M2351 2045 c-58 -82 -70 -122 -32 -111 9 3 57 15 106 26 122 29 120
29 108 41 -8 8 -40 3 -108 -15 -53 -14 -99 -26 -101 -26 -3 0 22 35 55 79 54
71 63 91 40 91 -4 0 -34 -38 -68 -85z"/>
<path d="M533 2013 c-12 -2 -36 -20 -53 -39 -68 -78 -13 -174 101 -174 79 0
135 92 98 162 -11 21 -83 58 -109 56 -8 0 -25 -3 -37 -5z m94 -42 c38 -24 49
-53 32 -92 -27 -65 -115 -75 -163 -18 -30 36 -31 40 -11 79 27 53 85 65 142
31z"/>
<path d="M1692 1988 c-19 -19 -15 -40 6 -34 12 4 23 -3 34 -22 13 -20 18 -23
18 -9 0 10 -11 29 -24 42 -13 13 -21 26 -18 29 3 3 3 6 1 6 -3 0 -10 -5 -17
-12z"/>
<path d="M1304 1972 c-14 -9 -34 -47 -34 -64 0 -7 9 2 20 20 17 28 23 32 35
22 12 -10 15 -9 15 9 0 21 -16 27 -36 13z"/>
<path d="M2400 1881 c-40 -4 -51 -9 -40 -16 8 -5 26 -8 40 -7 21 3 29 -4 47
-41 22 -44 22 -45 2 -63 -22 -20 -25 -37 -5 -32 23 5 163 143 158 156 -4 13
-99 14 -202 3z m135 -51 c-21 -22 -42 -40 -45 -40 -4 0 -14 15 -23 34 l-16 35
32 4 c18 2 45 5 62 5 l29 2 -39 -40z"/>
<path d="M390 1796 c0 -10 14 -18 38 -22 20 -4 40 -8 44 -10 3 -2 -2 -25 -12
-51 -19 -51 -23 -52 -89 -38 -26 6 -33 5 -29 -6 2 -7 42 -23 89 -34 46 -12 94
-25 107 -29 16 -5 22 -3 22 7 0 10 -18 19 -49 27 l-48 11 19 54 20 53 45 -15
c32 -11 48 -12 55 -5 13 13 15 12 -97 42 -44 11 -88 23 -97 26 -12 3 -18 0
-18 -10z"/>
<path d="M2511 1723 c-93 -46 -63 -179 45 -199 47 -9 118 27 134 67 10 24 10
39 1 70 -21 71 -104 99 -180 62z m138 -39 c21 -27 26 -59 15 -89 -13 -34 -93
-56 -139 -39 -19 8 -45 55 -45 84 0 11 11 32 25 45 19 20 34 25 74 25 42 0 53
-4 70 -26z"/>
<path d="M338 1570 c-24 -25 -29 -36 -23 -58 18 -76 111 -69 130 10 8 33 28
51 51 46 47 -9 42 -83 -6 -100 -33 -11 -40 -28 -11 -28 26 0 68 35 75 64 14
58 -41 110 -92 87 -12 -6 -31 -31 -42 -56 -21 -50 -42 -64 -65 -45 -24 20 -19
59 10 72 14 6 25 17 25 25 0 21 -19 15 -52 -17z"/>
<path d="M702 1065 c-1 -61 62 -127 104 -111 16 6 13 10 -19 21 -42 14 -64 37
-73 75 -10 43 -12 46 -12 15z"/>
<path d="M2311 1072 c-1 -19 -27 -82 -34 -82 -1 0 -20 -7 -42 -14 -33 -12 -37
-16 -21 -22 43 -17 111 60 103 115 -4 23 -4 24 -6 3z"/>
<path d="M830 945 c0 -7 -8 -16 -17 -18 -17 -4 -17 -5 0 -6 10 0 20 6 23 14 5
12 10 13 20 4 11 -9 14 -8 14 3 0 7 -9 14 -20 15 -11 1 -20 -4 -20 -12z"/>
<path d="M2400 833 c0 -10 52 -63 62 -63 5 0 6 11 2 25 -5 19 -2 25 10 25 9 0
16 5 16 10 0 6 -20 10 -45 10 -25 0 -45 -3 -45 -7z"/>
<path d="M580 789 c0 -19 -4 -28 -11 -24 -6 4 -8 13 -5 21 6 16 -10 29 -19 14
-10 -16 14 -50 37 -50 16 0 19 5 16 25 -3 14 -1 25 3 25 5 0 9 -10 9 -22 0
-16 3 -19 11 -11 16 16 1 53 -22 53 -15 0 -19 -7 -19 -31z"/>
<path d="M2362 745 c-16 -34 -17 -31 19 -44 43 -15 44 -15 57 14 7 16 8 25 1
25 -5 0 -12 -7 -15 -15 -10 -24 -26 -17 -19 8 6 21 6 21 -9 3 -9 -11 -19 -16
-23 -13 -4 4 -1 13 5 19 14 14 16 28 4 28 -5 0 -14 -11 -20 -25z"/>
<path d="M617 721 c-35 -15 -44 -37 -10 -24 23 9 35 -18 15 -34 -21 -15 -5
-17 37 -2 33 12 44 35 11 24 -24 -8 -40 22 -19 35 26 17 4 17 -34 1z"/>
<path d="M2305 650 c-21 -23 -21 -22 22 -44 31 -15 33 -15 47 6 33 46 -30 81
-69 38z m52 -1 c6 -6 9 -17 6 -25 -4 -10 -10 -10 -29 -2 -18 9 -21 14 -13 25
14 16 22 16 36 2z"/>
<path d="M690 632 c-22 -7 -39 -32 -33 -48 9 -24 41 -36 63 -24 40 22 13 86
-30 72z m29 -25 c12 -15 -3 -37 -25 -37 -17 0 -24 26 -11 39 14 14 22 14 36
-2z"/>
<path d="M2260 582 c0 -8 52 -42 64 -42 15 0 3 17 -23 33 -32 19 -41 21 -41 9z"/>
<path d="M752 531 c-29 -40 -28 -44 11 -36 32 7 32 7 14 -13 -25 -28 -7 -35
39 -16 22 9 34 19 27 21 -7 2 -22 -1 -35 -8 -22 -12 -22 -12 -5 14 18 28 11
42 -13 26 -23 -14 -34 -11 -20 6 6 8 10 19 8 25 -2 6 -13 -2 -26 -19z"/>
<path d="M2150 471 c0 -5 12 -18 28 -29 26 -19 28 -19 49 -2 12 10 19 20 16
24 -4 3 -14 -1 -23 -9 -15 -14 -19 -13 -35 5 -19 21 -35 26 -35 11z"/>
<path d="M2110 433 c0 -3 8 -15 17 -25 13 -14 14 -21 5 -30 -9 -9 -18 -6 -37
12 -14 13 -25 19 -25 13 0 -5 11 -20 24 -32 21 -20 27 -21 45 -9 26 16 26 26
2 56 -19 22 -31 28 -31 15z"/>
<path d="M901 391 c-27 -37 -27 -49 0 -25 20 18 20 18 14 -9 -8 -32 -4 -33 33
-10 l27 17 -19 -22 c-11 -12 -16 -25 -13 -28 3 -4 17 7 31 22 30 35 18 53 -19
28 l-27 -18 6 31 c10 42 -8 50 -33 14z"/>
<path d="M2008 366 c-22 -17 -22 -25 1 -53 22 -27 36 -30 27 -7 -4 10 1 22 11
31 16 13 15 14 -12 9 -27 -6 -28 -5 -12 7 18 15 22 27 10 27 -5 0 -16 -7 -25
-14z"/>
<path d="M1014 319 c-22 -24 -10 -52 25 -57 45 -7 70 47 32 68 -28 14 -35 13
-57 -11z m51 -23 c0 -22 -14 -29 -34 -17 -19 12 -6 43 16 39 10 -2 18 -12 18
-22z"/>
<path d="M1938 324 c-7 -7 24 -64 35 -64 10 0 9 7 -8 40 -16 32 -18 33 -27 24z"/>
<path d="M1850 285 c-23 -13 -23 -14 -4 -15 12 0 25 -10 32 -25 6 -14 16 -25
22 -25 14 0 13 13 -4 36 -10 13 -11 23 -4 31 14 18 -10 16 -42 -2z"/>
<path d="M1125 260 c-9 -18 -13 -35 -9 -38 4 -4 9 -1 11 6 7 20 33 14 33 -8 0
-11 5 -20 10 -20 6 0 10 8 10 18 0 10 5 23 12 30 14 14 4 26 -29 36 -18 6 -25
1 -38 -24z"/>
<path d="M1794 238 c6 -31 4 -38 -9 -38 -8 0 -20 11 -25 25 -14 37 -31 32 -18
-6 13 -37 29 -45 58 -29 17 9 20 17 15 38 -11 45 -28 53 -21 10z"/>
<path d="M1231 220 c-9 -28 -8 -32 16 -41 14 -5 31 -8 37 -6 6 3 -1 10 -16 16
-35 13 -37 25 -3 17 14 -4 25 -2 25 4 0 5 -9 10 -20 10 -11 0 -20 4 -20 10 0
5 14 7 33 4 24 -4 28 -3 17 5 -29 21 -57 13 -69 -19z"/>
<path d="M1641 193 c-12 -43 -7 -54 13 -27 13 16 18 17 35 6 28 -16 28 4 2 36
-27 31 -38 28 -50 -15z"/>
<path d="M1408 190 c-5 -35 5 -44 44 -38 18 2 23 9 23 33 0 26 -4 30 -31 33
-29 3 -32 0 -36 -28z"/>
<path d="M1524 198 c3 -13 6 -29 6 -35 0 -8 13 -13 30 -13 17 0 30 4 30 9 0 4
-11 6 -25 3 -14 -2 -25 0 -25 6 0 6 12 13 28 15 l27 4 -27 2 c-16 0 -28 5 -28
10 0 5 12 12 28 14 21 3 18 4 -12 6 -35 1 -38 -1 -32 -21z"/>
</g>
</svg>
